<svg width="48" height="48" viewBox="0 0 48 48" fill="none" xmlns="http://www.w3.org/2000/svg">
<path d="M32 6C33.5304 5.99991 35.003 6.58465 36.1165 7.63457C37.23 8.68448 37.9002 10.1202 37.99 11.648L38 12V32H39.5C40.794 32 41.86 32.984 41.988 34.244L42 34.5V38C42.0001 39.5304 41.4153 41.003 40.3654 42.1165C39.3155 43.23 37.8798 43.9002 36.352 43.99L36 44H16C14.4696 44.0001 12.997 43.4153 11.8835 42.3654C10.77 41.3155 10.0998 39.8798 10.01 38.352L10 38V18H6.5C5.88108 18.0003 5.28406 17.771 4.82447 17.3565C4.36487 16.9419 4.07538 16.3717 4.012 15.756L4 15.5V12C3.99991 10.4696 4.58465 8.99697 5.63457 7.88348C6.68448 6.76999 8.12021 6.09978 9.648 6.01L10 6H32ZM38 36H20V38C20 38.7 19.88 39.374 19.66 40H36C36.5304 40 37.0391 39.7893 37.4142 39.4142C37.7893 39.0391 38 38.5304 38 38V36ZM24 24H20C19.4902 24.0006 18.9999 24.1958 18.6293 24.5457C18.2586 24.8956 18.0355 25.3739 18.0057 25.8828C17.9758 26.3917 18.1413 26.8928 18.4685 27.2837C18.7957 27.6746 19.2598 27.9258 19.766 27.986L20 28H24C24.5098 27.9994 25.0001 27.8042 25.3707 27.4543C25.7414 27.1044 25.9645 26.6261 25.9943 26.1172C26.0242 25.6083 25.8587 25.1072 25.5315 24.7163C25.2043 24.3254 24.7402 24.0742 24.234 24.014L24 24ZM28 16H20C19.4696 16 18.9609 16.2107 18.5858 16.5858C18.2107 16.9609 18 17.4696 18 18C18 18.5304 18.2107 19.0391 18.5858 19.4142C18.9609 19.7893 19.4696 20 20 20H28C28.5304 20 29.0391 19.7893 29.4142 19.4142C29.7893 19.0391 30 18.5304 30 18C30 17.4696 29.7893 16.9609 29.4142 16.5858C29.0391 16.2107 28.5304 16 28 16ZM10 10C9.46957 10 8.96086 10.2107 8.58579 10.5858C8.21071 10.9609 8 11.4696 8 12V14H10V10Z" fill="#00B500"/>
</svg>
