<svg width="48" height="48" viewBox="0 0 48 48" fill="none" xmlns="http://www.w3.org/2000/svg">
<path d="M24 3.19922L0 14.3992L6.4 17.2792V22.7192C4.48 23.3592 3.2 25.2792 3.2 27.1992C3.2 29.1192 4.48 31.0392 6.4 31.6792V31.9992L3.52 38.7192C2.56 41.5992 3.2 44.7992 8 44.7992C12.8 44.7992 13.44 41.5992 12.48 38.7192L9.6 31.9992C11.52 31.0392 12.8 29.4392 12.8 27.1992C12.8 24.9592 11.52 23.3592 9.6 22.7192V18.8792L24 25.5992L48 14.3992L24 3.19922ZM38.08 23.9992L23.68 30.3992L16 26.8792V27.1992C16 29.4392 15.04 31.3592 13.44 32.9592L15.36 37.4392V37.7592C15.68 39.0392 16 40.3192 15.68 41.5992C17.92 42.5592 20.48 43.1992 23.68 43.1992C34.24 43.1992 38.08 36.7992 38.08 33.5992V23.9992Z" fill="#00B500"/>
</svg>
