<svg width="48" height="48" viewBox="0 0 48 48" fill="none" xmlns="http://www.w3.org/2000/svg">
<path d="M25.4392 10C27.0141 10.0042 27.8135 10.0126 28.5037 10.0322L28.7752 10.042C29.0888 10.0532 29.3982 10.0672 29.772 10.084C31.2615 10.154 32.2779 10.3892 33.1696 10.735C34.0936 11.0906 34.8719 11.5722 35.6503 12.3491C36.3624 13.0488 36.9133 13.8954 37.2644 14.8299C37.6102 15.7217 37.8454 16.738 37.9154 18.229C37.9322 18.6014 37.9462 18.9108 37.9574 19.2258L37.9658 19.4974C37.9868 20.1862 37.9952 20.9855 37.998 22.5605L37.9994 23.6049V25.4388C38.0028 26.46 37.9921 27.4811 37.9672 28.502L37.9588 28.7735C37.9476 29.0885 37.9336 29.3979 37.9168 29.7703C37.8468 31.2613 37.6088 32.2763 37.2644 33.1694C36.9133 34.104 36.3624 34.9506 35.6503 35.6502C34.9507 36.3623 34.1041 36.9132 33.1696 37.2643C32.2779 37.6101 31.2615 37.8453 29.772 37.9153L28.7752 37.9573L28.5037 37.9657C27.8135 37.9853 27.0141 37.9951 25.4392 37.9979L24.3949 37.9993H22.5624C21.5408 38.0029 20.5192 37.9922 19.4979 37.9671L19.2263 37.9587C18.894 37.9461 18.5617 37.9317 18.2296 37.9153C16.7401 37.8453 15.7237 37.6101 14.8306 37.2643C13.8966 36.913 13.0505 36.3622 12.3513 35.6502C11.6386 34.9507 11.0873 34.1041 10.7358 33.1694C10.39 32.2777 10.1548 31.2613 10.0848 29.7703L10.0428 28.7735L10.0358 28.502C10.01 27.4811 9.99832 26.46 10.0008 25.4388V22.5605C9.99692 21.5394 10.0072 20.5182 10.0316 19.4974L10.0414 19.2258C10.0526 18.9108 10.0666 18.6014 10.0834 18.229C10.1534 16.738 10.3886 15.7231 10.7344 14.8299C11.0867 13.895 11.639 13.0483 12.3527 12.3491C13.0515 11.6373 13.8971 11.0865 14.8306 10.735C15.7237 10.3892 16.7387 10.154 18.2296 10.084C18.602 10.0672 18.9127 10.0532 19.2263 10.042L19.4979 10.0336C20.5187 10.0087 21.5398 9.99799 22.561 10.0014L25.4392 10ZM24.0001 16.9998C22.1437 16.9998 20.3633 17.7373 19.0506 19.05C17.7379 20.3628 17.0004 22.1432 17.0004 23.9997C17.0004 25.8561 17.7379 27.6366 19.0506 28.9493C20.3633 30.262 22.1437 30.9995 24.0001 30.9995C25.8565 30.9995 27.6369 30.262 28.9496 28.9493C30.2623 27.6366 30.9997 25.8561 30.9997 23.9997C30.9997 22.1432 30.2623 20.3628 28.9496 19.05C27.6369 17.7373 25.8565 16.9998 24.0001 16.9998ZM24.0001 19.7998C24.5516 19.7997 25.0978 19.9082 25.6073 20.1192C26.1169 20.3302 26.5799 20.6395 26.97 21.0294C27.36 21.4193 27.6695 21.8823 27.8806 22.3918C28.0918 22.9013 28.2005 23.4474 28.2006 23.999C28.2007 24.5505 28.0921 25.0967 27.8812 25.6062C27.6702 26.1158 27.3609 26.5789 26.971 26.9689C26.5811 27.359 26.1181 27.6684 25.6086 27.8796C25.0991 28.0907 24.553 28.1995 24.0015 28.1996C22.8876 28.1996 21.8194 27.7571 21.0318 26.9694C20.2442 26.1818 19.8017 25.1135 19.8017 23.9997C19.8017 22.8858 20.2442 21.8175 21.0318 21.0299C21.8194 20.2423 22.8876 19.7998 24.0015 19.7998M31.3511 14.8999C30.887 14.8999 30.4419 15.0843 30.1137 15.4124C29.7856 15.7406 29.6012 16.1857 29.6012 16.6498C29.6012 17.114 29.7856 17.5591 30.1137 17.8872C30.4419 18.2154 30.887 18.3998 31.3511 18.3998C31.8152 18.3998 32.2603 18.2154 32.5885 17.8872C32.9167 17.5591 33.101 17.114 33.101 16.6498C33.101 16.1857 32.9167 15.7406 32.5885 15.4124C32.2603 15.0843 31.8152 14.8999 31.3511 14.8999Z" fill="#FEFEFE"/>
</svg>
