<svg width="48" height="48" viewBox="0 0 48 48" fill="none" xmlns="http://www.w3.org/2000/svg">
<path fill-rule="evenodd" clip-rule="evenodd" d="M12 4C10.9391 4 9.92172 4.42143 9.17157 5.17157C8.42143 5.92172 8 6.93913 8 8V38C8 39.5913 8.63214 41.1174 9.75736 42.2426C10.8826 43.3679 12.4087 44 14 44H38C38.5304 44 39.0391 43.7893 39.4142 43.4142C39.7893 43.0391 40 42.5304 40 42C40 41.4696 39.7893 40.9609 39.4142 40.5858C39.0391 40.2107 38.5304 40 38 40H34V36H38C38.5304 36 39.0391 35.7893 39.4142 35.4142C39.7893 35.0391 40 34.5304 40 34V8C40 6.93913 39.5786 5.92172 38.8284 5.17157C38.0783 4.42143 37.0609 4 36 4H20V36H30V40H14C13.4696 40 12.9609 39.7893 12.5858 39.4142C12.2107 39.0391 12 38.5304 12 38C12 37.4696 12.2107 36.9609 12.5858 36.5858C12.9609 36.2107 13.4696 36 14 36H16V4H12Z" fill="#00B500"/>
</svg>
